<svg xmlns="http://www.w3.org/2000/svg" viewBox="0 0 800 500" width="800" height="500">
  <defs>
    <linearGradient id="bg" x1="0" y1="0" x2="1" y2="1">
      <stop offset="0" stop-color="#160b26"/>
      <stop offset="1" stop-color="#2a0f44"/>
    </linearGradient>
    <linearGradient id="accent" x1="0" y1="0" x2="1" y2="0">
      <stop offset="0" stop-color="#f472b6"/>
      <stop offset="1" stop-color="#7c5cff"/>
    </linearGradient>
    <pattern id="grid" width="40" height="40" patternUnits="userSpaceOnUse">
      <path d="M40 0H0V40" fill="none" stroke="rgba(255,255,255,0.05)" stroke-width="1"/>
    </pattern>
    <pattern id="ruled" width="800" height="32" patternUnits="userSpaceOnUse">
      <line x1="0" y1="31" x2="800" y2="31" stroke="rgba(244,114,182,0.18)" stroke-width="1"/>
    </pattern>
  </defs>
  <rect width="800" height="500" fill="url(#bg)"/>
  <rect width="800" height="500" fill="url(#grid)"/>

  <g opacity="0.85" transform="translate(0, 360)">
    <rect width="800" height="140" fill="url(#ruled)"/>
    <line x1="64" y1="360" x2="64" y2="500" stroke="rgba(244,114,182,0.35)" stroke-width="1"/>
  </g>

  <g transform="translate(56, 70)">
    <rect width="96" height="30" rx="15" fill="rgba(244,114,182,0.14)" stroke="rgba(244,114,182,0.55)"/>
    <text x="48" y="20" font-family="ui-monospace, monospace" font-size="11" fill="#f472b6" text-anchor="middle" letter-spacing="2.5">PROJECT</text>
  </g>

  <g transform="translate(56, 220)">
    <text font-family="Inter, sans-serif" font-size="68" font-weight="800" fill="#f5f5fa">MiEscuelaApp</text>
    <text y="42" font-family="Inter, sans-serif" font-size="20" font-weight="500" fill="#9ca3af">Plataforma de gestión escolar integral</text>
  </g>

  <g transform="translate(56, 320)" font-family="ui-monospace, monospace" font-size="13" fill="#a3a3b0">
    <text>Flask · PostgreSQL · Jinja2 · Bootstrap</text>
  </g>

  <g transform="translate(640, 60)" fill="none" stroke="rgba(255,255,255,0.22)" stroke-width="1.6" stroke-linecap="round" stroke-linejoin="round">
    <path d="M20 36 L60 16 L100 36 L60 56 Z"/>
    <path d="M30 42 V70 C30 78 40 84 60 84 C80 84 90 78 90 70 V42"/>
    <line x1="100" y1="36" x2="100" y2="62"/>
    <circle cx="100" cy="66" r="4" fill="#f472b6" stroke="none"/>
  </g>
</svg>
