<svg xmlns="http://www.w3.org/2000/svg" viewBox="0 0 800 500" width="800" height="500">
  <defs>
    <linearGradient id="bg" x1="0" y1="0" x2="1" y2="1">
      <stop offset="0" stop-color="#0b1726"/>
      <stop offset="1" stop-color="#0f2a44"/>
    </linearGradient>
    <linearGradient id="accent" x1="0" y1="0" x2="1" y2="0">
      <stop offset="0" stop-color="#22d3ee"/>
      <stop offset="1" stop-color="#7c5cff"/>
    </linearGradient>
    <pattern id="grid" width="40" height="40" patternUnits="userSpaceOnUse">
      <path d="M40 0H0V40" fill="none" stroke="rgba(255,255,255,0.05)" stroke-width="1"/>
    </pattern>
  </defs>
  <rect width="800" height="500" fill="url(#bg)"/>
  <rect width="800" height="500" fill="url(#grid)"/>

  <g opacity="0.55">
    <path d="M0 360 Q 100 320 200 360 T 400 360 T 600 360 T 800 360 V500 H0 Z" fill="url(#accent)" opacity="0.18"/>
    <path d="M0 400 Q 120 360 240 400 T 480 400 T 720 400 T 960 400 V500 H0 Z" fill="url(#accent)" opacity="0.22"/>
    <path d="M0 440 Q 140 410 280 440 T 560 440 T 840 440 V500 H0 Z" fill="url(#accent)" opacity="0.30"/>
  </g>

  <g transform="translate(56, 70)">
    <rect width="96" height="30" rx="15" fill="rgba(34,211,238,0.14)" stroke="rgba(34,211,238,0.55)"/>
    <text x="48" y="20" font-family="ui-monospace, monospace" font-size="11" fill="#22d3ee" text-anchor="middle" letter-spacing="2.5">PROJECT</text>
  </g>

  <g transform="translate(56, 220)">
    <text font-family="Inter, sans-serif" font-size="80" font-weight="800" fill="#f5f5fa">PoolPay</text>
    <text y="42" font-family="Inter, sans-serif" font-size="20" font-weight="500" fill="#9ca3af">Gestión de pagos para servicios de piletas</text>
  </g>

  <g transform="translate(56, 330)" font-family="ui-monospace, monospace" font-size="13" fill="#a3a3b0">
    <text>FastAPI · React · SQLModel · MercadoPago</text>
  </g>

  <g transform="translate(640, 60)" stroke="rgba(255,255,255,0.20)" fill="none" stroke-width="1.6">
    <circle cx="60" cy="60" r="54"/>
    <circle cx="60" cy="60" r="36"/>
    <circle cx="60" cy="60" r="18"/>
    <circle cx="60" cy="60" r="4" fill="#22d3ee" stroke="none"/>
  </g>
</svg>
